<svg id="Layer_1" data-name="Layer 1" xmlns="http://www.w3.org/2000/svg" viewBox="0 0 420.77 83.82"><defs><style>.cls-1{fill:none;}.cls-2{fill:#770d29;}.cls-3{fill:#004062;}</style></defs><title>toastmasterswordmarkcolor (1)</title><rect class="cls-1" width="420.77" height="83.82"/><path class="cls-2" d="M453.47,409.05h0a2.09,2.09,0,1,1,4.17,0h0a2.09,2.09,0,1,1-4.17,0Zm3.93,0h0a1.85,1.85,0,1,0-3.69,0h0a1.85,1.85,0,1,0,3.69,0Zm-2.66-1.1h1c.47,0,.82.22.82.67a.65.65,0,0,1-.5.65l.57.8h-.49l-.51-.73h-.44v.73h-.41Zm.92,1.05c.28,0,.44-.14.44-.35s-.16-.34-.44-.34h-.51V409Z" transform="translate(-95.68 -354.66)"/><path class="cls-3" d="M118.78,373.82h-10v-6.38h27.35v6.38H126v25.07h-7.26Z" transform="translate(-95.68 -354.66)"/><path class="cls-3" d="M138.77,383.25v-.09c0-8.94,7.41-16.26,17.59-16.26s17.49,7.23,17.49,16.17v.09c0,8.95-7.4,16.27-17.58,16.27S138.77,392.2,138.77,383.25Zm27.49,0v-.09a9.78,9.78,0,0,0-10-9.88,9.63,9.63,0,0,0-9.91,9.79v.09a9.78,9.78,0,0,0,10,9.89A9.62,9.62,0,0,0,166.26,383.25Z" transform="translate(-95.68 -354.66)"/><path class="cls-3" d="M189.51,367.21h6.69l14.15,31.68h-7.59l-3-7.05h-14l-3,7.05h-7.4Zm7.63,18.52-4.38-10.2-4.38,10.2Z" transform="translate(-95.68 -354.66)"/><path class="cls-3" d="M212.7,394.31l4.29-4.9a15.55,15.55,0,0,0,9.86,3.82c3,0,4.76-1.12,4.76-3v-.09c0-1.75-1.13-2.65-6.65-4-6.65-1.62-10.94-3.37-10.94-9.62v-.09c0-5.71,4.81-9.48,11.56-9.48a19.7,19.7,0,0,1,12.25,4l-3.77,5.21c-2.92-1.93-5.8-3.1-8.58-3.1s-4.24,1.21-4.24,2.74v.09c0,2.07,1.41,2.74,7.12,4.13,6.69,1.67,10.46,4,10.46,9.44v.09c0,6.25-5,9.75-12.11,9.75A21.62,21.62,0,0,1,212.7,394.31Z" transform="translate(-95.68 -354.66)"/><path class="cls-3" d="M252.12,373.82h-10v-6.38h27.34v6.38h-10v25.07h-7.26Z" transform="translate(-95.68 -354.66)"/><path class="cls-3" d="M275,367.44h7.82l8.68,13.3,8.68-13.3H308v31.45h-7.21V378.36l-9.29,13.43h-.19l-9.19-13.3v20.4H275Z" transform="translate(-95.68 -354.66)"/><path class="cls-3" d="M327.23,367.21h6.69l14.15,31.68h-7.59l-3-7.05h-14l-3,7.05h-7.41Zm7.64,18.52-4.39-10.2-4.38,10.2Z" transform="translate(-95.68 -354.66)"/><path class="cls-3" d="M350.43,394.31l4.29-4.9a15.52,15.52,0,0,0,9.85,3.82c3,0,4.76-1.12,4.76-3v-.09c0-1.75-1.13-2.65-6.64-4-6.65-1.62-10.94-3.37-10.94-9.62v-.09c0-5.71,4.81-9.48,11.55-9.48a19.72,19.72,0,0,1,12.26,4l-3.77,5.21c-2.93-1.93-5.8-3.1-8.59-3.1s-4.24,1.21-4.24,2.74v.09c0,2.07,1.42,2.74,7.12,4.13,6.7,1.67,10.47,4,10.47,9.44v.09c0,6.25-5,9.75-12.12,9.75A21.6,21.6,0,0,1,350.43,394.31Z" transform="translate(-95.68 -354.66)"/><path class="cls-3" d="M389.84,373.82h-10v-6.38h27.35v6.38h-10v25.07h-7.27Z" transform="translate(-95.68 -354.66)"/><path class="cls-3" d="M412.71,367.44h24.9v6.15H419.93V380h15.55v6.16H419.93v6.61h17.91v6.15H412.71Z" transform="translate(-95.68 -354.66)"/><path class="cls-3" d="M444.3,367.44h15.09c4.2,0,7.45,1.12,9.62,3.19a9.61,9.61,0,0,1,2.83,7.19v.09c0,5.07-2.88,8.27-7.08,9.75l8.07,11.23h-8.49l-7.07-10.06h-5.71v10.06H444.3Zm14.62,15.28c3.53,0,5.56-1.8,5.56-4.45v-.09c0-3-2.17-4.5-5.7-4.5h-7.22v9Z" transform="translate(-95.68 -354.66)"/><path class="cls-3" d="M476.13,394.31l4.29-4.9a15.52,15.52,0,0,0,9.85,3.82c3,0,4.76-1.12,4.76-3v-.09c0-1.75-1.13-2.65-6.65-4-6.64-1.62-10.93-3.37-10.93-9.62v-.09c0-5.71,4.81-9.48,11.55-9.48a19.72,19.72,0,0,1,12.26,4l-3.77,5.21c-2.93-1.93-5.8-3.1-8.59-3.1s-4.24,1.21-4.24,2.74v.09c0,2.07,1.41,2.74,7.12,4.13,6.69,1.67,10.47,4,10.47,9.44v.09c0,6.25-5,9.75-12.12,9.75A21.6,21.6,0,0,1,476.13,394.31Z" transform="translate(-95.68 -354.66)"/><path class="cls-2" d="M154.13,406.68h2.34l-.06,20.63h-2.3Z" transform="translate(-95.68 -354.66)"/><path class="cls-2" d="M167.05,406.68h2.21l13,16.49V406.68h2.27v20.63h-1.82l-13.34-16.88-.07,16.88h-2.22Z" transform="translate(-95.68 -354.66)"/><path class="cls-2" d="M200.38,408.86h-6.91V406.7h16.22v2.14h-6.92v18.48H200.4Z" transform="translate(-95.68 -354.66)"/><path class="cls-2" d="M218.64,406.61h14.92v2.13H221v7l11.26,0v2.11H221v7.2l12.71.05v2.08H218.64Z" transform="translate(-95.68 -354.66)"/><path class="cls-2" d="M243,406.68h8.25c3.12,0,5.2.68,6.58,2.11a6.61,6.61,0,0,1,1.51,3.83h0c0,3.45-2,5.59-5.57,6.26l6.33,8.43h-2.88l-6-8h-5.86l0,8H243Zm8.1,10.56c4.43,0,5.87-2,5.92-4.53h0c-.3-2-1.22-3.91-5.82-3.91l-5.88.05v8.34Z" transform="translate(-95.68 -354.66)"/><path class="cls-2" d="M268.87,406.68h2.22l13,16.56V406.68h2.27v20.63h-1.87L271.2,410.43l0,16.88H268.9Z" transform="translate(-95.68 -354.66)"/><path class="cls-2" d="M304.41,406.54h2.18l9.4,20.77h-2.5l-2.38-5.42-11.26,0-2.45,5.44H295Zm5.74,13.2-4.67-10.48-4.72,10.48Z" transform="translate(-95.68 -354.66)"/><path class="cls-2" d="M327.43,408.83h-6.91v-2.16h16.22v2.16h-6.93l0,18.47h-2.34Z" transform="translate(-95.68 -354.66)"/><path class="cls-2" d="M345.9,406.68h2.32v20.63H345.9Z" transform="translate(-95.68 -354.66)"/><path class="cls-2" d="M358,417.05V417a10.46,10.46,0,0,1,10.35-10.67A10.3,10.3,0,0,1,379,416.92h0a10.51,10.51,0,1,1-21,.13Zm18.63,0V417a8.14,8.14,0,0,0-8.11-8.49c-5.11,0-8.09,4-8.1,8.47V417a8.29,8.29,0,0,0,5.89,8.25A8.16,8.16,0,0,0,376.58,417Z" transform="translate(-95.68 -354.66)"/><path class="cls-2" d="M388.49,406.68h2.19l13,16.53V406.68H406v20.63h-1.88l-13.31-16.89,0,16.89H388.5Z" transform="translate(-95.68 -354.66)"/><path class="cls-2" d="M424,406.54h2.17l9.41,20.77H433.1l-2.45-5.45H419.46L417,427.31h-2.37Zm5.73,13.17-4.7-10.46-4.69,10.5Z" transform="translate(-95.68 -354.66)"/><path class="cls-2" d="M444.26,406.68h2.33v18.49h11.64l0,2.13H444.26Z" transform="translate(-95.68 -354.66)"/></svg>