<svg id="Layer_1" data-name="Layer 1" xmlns="http://www.w3.org/2000/svg" viewBox="0 0 434.24 360.23">
    <defs>
        <style>
            .cls-1{fill:#770d29;}.cls-2{fill:url(#linear-gradient);}.cls-3,.cls-5{fill:#fff;}.cls-3{stroke:#fff;stroke-width:0.5px;}.cls-4{fill:none;stroke:#ffeb88;stroke-miterlimit:10;stroke-width:8.5px;}.cls-6{fill:#7a1613;}.cls-7{fill:#004062;}
        </style>
        <linearGradient id="linear-gradient" x1="107.44" y1="306.09" x2="446.13" y2="306.09"
                        gradientUnits="userSpaceOnUse">
            <stop offset="0" stop-color="#fff"/>
            <stop offset="1" stop-color="#004062"/>
        </linearGradient>
    </defs>
    <title>toastmasters-logo-color</title>
    <path class="cls-1"
          d="M613.29,258H569.52a180.1,180.1,0,0,0-347.16,0H179.05v97h43.58C244,430.74,313.46,486.2,395.93,486.2A180.15,180.15,0,0,0,569.25,355.09h44Z"
          transform="translate(-179.05 -125.97)"/>
    <path class="cls-2" d="M565.28,306.09A169.34,169.34,0,1,1,395.93,136.75,169.35,169.35,0,0,1,565.28,306.09Z"
          transform="translate(-179.05 -125.97)"/>
    <path class="cls-3"
          d="M439.85,138.51C348.07,114.27,253.68,169.2,229.44,261s30.7,186.17,122.47,210.41,186.17-30.7,210.41-122.47S531.62,162.75,439.85,138.51ZM330.71,455.44a89.85,89.85,0,0,1-19-17.67C301.36,425,293.93,409.45,289,392.94l2,.87c13.06,5.48,26.37,10.24,39.83,14.45,0,1.1.05,2.18.1,3.26a171.51,171.51,0,0,0,2.48,23.15c1.39,7.49,3.41,14.78,6.66,21.05a33.84,33.84,0,0,0,4.64,6.84c-1.5-.48-3-1-4.45-1.52A79,79,0,0,1,330.71,455.44ZM233.08,327.6A165.27,165.27,0,0,1,234.52,275a50.89,50.89,0,0,0,8.16,8.29,134.84,134.84,0,0,0,18.73,12.59c5.53,3.15,11.17,6,16.89,8.74a234.64,234.64,0,0,0-2.1,23.5c-2.51,0-5,0-7.55.15a103,103,0,0,0-19.87,2.65,40.08,40.08,0,0,0-9.87,3.8,20.57,20.57,0,0,0-4.15,3.1C234.1,334.41,233.53,331,233.08,327.6ZM271,198.05a20.19,20.19,0,0,0,2,4.47,39.52,39.52,0,0,0,6.76,8.19,103,103,0,0,0,16,12.14c2.25,1.41,4.54,2.75,6.84,4-3.51,6.89-6.68,14-9.51,21.18-6.28-.45-12.56-.72-18.89-.71a133.14,133.14,0,0,0-22.51,1.7,49.84,49.84,0,0,0-11.24,3.2,165.1,165.1,0,0,1,25-47.39Q268.14,201.39,271,198.05Zm10.3-11.16c.15-.09.3-.19.46-.27a33.46,33.46,0,0,1,8.28-3.2,95.35,95.35,0,0,1,18.62-2.56,234.84,234.84,0,0,1,25.58.18,202.67,202.67,0,0,0-28.3,39.61,4.64,4.64,0,0,1-.23.44c-2.23-1.31-4.44-2.65-6.61-4a97.23,97.23,0,0,1-14.93-11.42,34.43,34.43,0,0,1-5.62-6.87c-1.44-2.43-2.11-4.94-1.55-6.91a6,6,0,0,1,.31-.87C278.6,189.6,279.92,188.23,281.27,186.89Zm69.1-41.21q7.81-2.25,15.87-3.72a7.32,7.32,0,0,0-.33.93,7.9,7.9,0,0,0-.09,3.41,10.86,10.86,0,0,0,1,2.8,17.82,17.82,0,0,0,2.32,3.4,145.16,145.16,0,0,0-28.37,21.76c-.6.58-1.17,1.2-1.76,1.79a230.84,230.84,0,0,0-30.59-1,112.33,112.33,0,0,0-16,1.77,164.44,164.44,0,0,1,21.48-15.08A170.46,170.46,0,0,1,350.37,145.68ZM486.07,386.9c1.54.9,3.08,1.81,4.6,2.78a98.08,98.08,0,0,1,15.4,11.67,36.54,36.54,0,0,1,6.15,7.49c1.64,2.74,2.77,6.1,1.92,9.34s-3.5,5.59-6.27,7.16a37,37,0,0,1-9.05,3.48,99.84,99.84,0,0,1-19.16,2.55,209.59,209.59,0,0,1-24.81-.5,203,203,0,0,0,30.49-42.57ZM484.24,388a197.92,197.92,0,0,1-31.37,42.77c-3.93-.32-7.87-.7-11.78-1.15-12.17-1.44-24.23-3.48-36.21-5.93,2.76-4.91,5.39-9.93,7.92-15a425,425,0,0,0,18.6-44.28c.18-.49.34-1,.52-1.47,8.19,2.87,16.31,5.94,24.33,9.3a273.8,273.8,0,0,1,28.83,14.15C484.8,386.87,484.53,387.41,484.24,388ZM354.59,465.37c-5.36-1.46-9.49-6.2-12.33-12.12s-4.64-12.94-5.81-20.2a173.73,173.73,0,0,1-1.91-23.64q15.21,4.63,30.63,8.48,18.16,4.47,36.57,7.83c-.56.92-1.12,1.86-1.7,2.77A165.64,165.64,0,0,1,386.83,447c-4.74,5.66-9.88,10.8-15.42,14.41a28,28,0,0,1-8.49,3.91A15.71,15.71,0,0,1,354.59,465.37Zm11-51.3q-15.65-4.41-31-9.66c0-5.72.23-11.49.56-17.24A423.27,423.27,0,0,1,340.75,340c0-.13.05-.25.07-.37q21.17,3.56,42.07,8.75c16.22,4.05,32.3,8.69,48.11,14.18A414.21,414.21,0,0,1,411.53,408q-3.93,7.83-8.34,15.27C390.54,420.66,378,417.54,365.54,414.07Zm-83.8-85.9c.3-7,.95-14.07,1.89-21.08,5.95,2.71,12,5.24,18,7.69,12.12,4.8,24.4,9.13,36.78,13.1q-.65,3.38-1.24,6.75-14.55-2.76-29.29-4.55C299.22,329.11,290.51,328.38,281.74,328.17Zm-44.49-65.12c.07-.31.16-.61.24-.92.9-1.69,3-3.26,5.52-4.36a43.83,43.83,0,0,1,9.82-2.85,127.07,127.07,0,0,1,21.37-1.75q8.4-.06,16.84.38-3.94,10.77-6.9,21.89t-4.84,22.65q-7.56-3.79-14.85-8A127.57,127.57,0,0,1,246.74,278a43,43,0,0,1-7.14-7.34c-1.63-2.18-2.7-4.58-2.65-6.49C237.05,263.8,237.14,263.42,237.25,263.05Zm52.42,13.85q3.06-11.68,7.27-23c6.9.47,13.81,1.13,20.69,1.95,12.71,1.49,25.36,3.42,38,5.69q-4.92,15.06-9,30.39T339.37,323c-12.09-4.27-24.05-8.83-35.83-13.83q-9.59-4-19-8.51C285.9,292.69,287.58,284.74,289.67,276.9ZM372,150.55a16.3,16.3,0,0,1-2.54-3.51,5.16,5.16,0,0,1-.61-3.59,4.43,4.43,0,0,1,1.48-2.19,164.13,164.13,0,0,1,33.39-1.82,97.26,97.26,0,0,0-16.21,4.39,115.72,115.72,0,0,0-15.3,6.93ZM498,174.5a5.92,5.92,0,0,1,.09,3.1,6.83,6.83,0,0,1-3.07,3.84,14.52,14.52,0,0,1-2.57,1.32,109.6,109.6,0,0,0-8.79-12.47,96.16,96.16,0,0,0-13-13.2A164.87,164.87,0,0,1,498,174.5Zm16.8,102.16a202.6,202.6,0,0,0-5.39-51.75,213,213,0,0,1,21.9,11.83,99.45,99.45,0,0,1,15.47,11.7,36.79,36.79,0,0,1,6.19,7.49c1.65,2.75,2.78,6.1,1.93,9.34s-3.5,5.59-6.29,7.17a36.8,36.8,0,0,1-9.07,3.45,99.18,99.18,0,0,1-19.24,2.54c-1.86.08-3.71.12-5.55.14C514.78,277.93,514.82,277.29,514.82,276.66Zm-1.13-.24c0,.72-.05,1.43-.06,2.15a272,272,0,0,1-32-2c-8.65-1-17.25-2.38-25.82-3.93.11-.61.23-1.22.33-1.82a425.45,425.45,0,0,0,5.7-47.7c.3-5.55.5-11.12.51-16.65,11.64,3.78,23.14,8,34.44,12.71,3.64,1.56,7.28,3.17,10.88,4.86A197.61,197.61,0,0,1,513.69,276.42Zm-162.63,16.7q4.08-15.54,9.05-30.77,21.88,4.09,43.53,9.52c16.36,4.11,32.64,8.69,48.7,13.9q-3.22,16.17-7.42,32.14c-2.86,10.67-6,21.3-9.48,31.8-16.54-3.41-32.94-7.46-49.2-11.95q-21.47-6-42.55-13.22Q346.92,308.73,351.06,293.12ZM405,269.26c-14.42-4-29-7.65-43.6-10.81.64-1.92,1.32-3.82,2-5.73,13.88,4.59,27.93,8.58,42.08,12.12,16.19,4,32.53,7.37,49,9.93-.56,3.17-1.16,6.33-1.78,9.48Q429.08,276,405,269.26ZM391.5,188.41q15.88,3,31.58,6.9c12.64,3.16,25.19,6.66,37.61,10.66.08,5.64,0,11.34-.3,17.07a410.73,410.73,0,0,1-5.58,49.45c-16.53-3.05-32.89-7-49.07-11.47q-20.61-5.81-40.73-13.09c.08-.22.15-.45.24-.67a425.64,425.64,0,0,1,18.36-43.84C386.12,198.34,388.75,193.32,391.5,188.41Zm33.3-46.61c1.47.27,3,.55,4.43.86a33.13,33.13,0,0,0-7.39,3.64c-5.92,3.85-11.28,9.19-16.18,15-1.78,2.12-3.49,4.34-5.16,6.59-2-.88-4.05-1.78-6-2.73a109.41,109.41,0,0,1-15.64-8.86c-1.1-.76-2.17-1.57-3.21-2.41a107.73,107.73,0,0,1,12.7-6,89.65,89.65,0,0,1,25.23-6A78.38,78.38,0,0,1,424.8,141.8Zm-17.33,22.43c4.61-5.73,9.61-10.95,15-14.7a29,29,0,0,1,8.35-4.14,16.07,16.07,0,0,1,8.32-.32c5.41,1.27,9.7,5.88,12.7,11.74s5,12.88,6.29,20.14c.43,2.38.78,4.78,1.08,7.21a215.25,215.25,0,0,1-31.06-6.5,225.65,225.65,0,0,1-24.51-8.42C404.91,167.53,406.17,165.85,407.47,164.23Zm20.45,15.56a220.13,220.13,0,0,0,31.44,5.45c.57,4.71.94,9.5,1.15,14.33.06,1.52.1,3,.14,4.56q-17.89-6.3-36.17-11.42-15.36-4.28-31-7.79c2.66-4.54,5.44-8.94,8.37-13.15A225.5,225.5,0,0,0,427.92,179.79Zm27.44,95.12c9,1.38,18,2.53,27,3.39a285.43,285.43,0,0,0,31.22,1.44A234.48,234.48,0,0,1,511,308.29c-7.42-3.66-15-7.06-22.59-10.27q-17.19-7.27-34.83-13.45C454.18,281.35,454.78,278.13,455.36,274.91ZM498,219c-11.7-5.26-23.63-10-35.71-14.3,0-6.51-.3-13-.93-19.31.79.07,1.6.15,2.41.2a109.4,109.4,0,0,0,18.28,0,44.66,44.66,0,0,0,8.67-1.59,139.44,139.44,0,0,1,15.77,35.89c.35,1.16.63,2.33.94,3.5Q502.77,221.15,498,219Zm-35.87-64.84a89.86,89.86,0,0,1,19.48,17.35,107.23,107.23,0,0,1,8.76,11.95,43,43,0,0,1-8.73,1.53,104.56,104.56,0,0,1-18.14-.35l-2.25-.26c-.28-2.69-.61-5.37-1-8-1.23-7.48-3.08-14.76-6.17-21.09a34,34,0,0,0-4.63-7.13c2.18.75,4.34,1.53,6.47,2.36C458,151.65,460.13,152.86,462.16,154.18Zm-89.79,1.56a50.64,50.64,0,0,0,4.79,3.7,106,106,0,0,0,16.21,8.83c1.73.77,3.47,1.49,5.21,2.19q-3.37,4.75-6.51,9.76c-.81,1.28-1.58,2.57-2.36,3.87-13.84-3-27.81-5.45-41.92-7.15l-2.39-.25A143.52,143.52,0,0,1,372.37,155.74ZM347,182c13.6,1.29,27.14,3.23,40.6,5.67q-3.76,6.51-7.21,13.29a410.78,410.78,0,0,0-19.54,45.42Q346.72,241.12,333,235c-7.65-3.43-15.2-7.11-22.51-11.15l.12-.23a200.11,200.11,0,0,1,30.12-42.12Q343.86,181.72,347,182Zm-16,58.66c9.26,3.88,18.64,7.39,28.1,10.62q-1.08,3.1-2.13,6.23c-12.71-2.66-25.5-5-38.39-6.77-6.5-.85-13-1.62-19.57-2.2q3.86-9.7,8.51-19C315.15,233.65,323,237.28,331,240.68Zm11.77,88.59q21.42,6.71,43.18,12.11,24.24,6,48.81,10.5c-1.06,3.14-2.14,6.25-3.26,9.37-15.49-5.89-31.28-11-47.24-15.5-14.07-3.91-28.29-7.38-42.64-10.24C342,333.43,342.32,331.34,342.73,329.27ZM457.42,372c-8.24-3.7-16.6-7.13-25.06-10.37q1.69-4.74,3.3-9.55c12.27,2.2,24.6,4.07,37,5.53,8.18,1,16.39,1.73,24.61,2.22a233,233,0,0,1-12.06,26.34A285.41,285.41,0,0,0,457.42,372Zm14.51-15.88c-11.93-1.67-23.79-3.77-35.58-6.18q5.16-15.73,9.37-31.78c2.83-10.61,5.33-21.32,7.51-32.06,11.44,3.72,22.78,7.75,34,12.19,8,3.24,15.92,6.64,23.7,10.36A249.44,249.44,0,0,1,505.66,334a253.15,253.15,0,0,1-8,24.8C489.05,358.16,480.47,357.2,471.93,356.08Zm34.68-21.88a244.58,244.58,0,0,0,5.3-25.11c5.07,2.46,10.08,5.06,15,7.85a130.29,130.29,0,0,1,18.2,12.26,46.7,46.7,0,0,1,7.69,7.83,19.11,19.11,0,0,1,2.67,4.82,8.46,8.46,0,0,1-2.64,10,18.75,18.75,0,0,1-4.71,2.87,46.53,46.53,0,0,1-10.56,3,131.37,131.37,0,0,1-21.88,1.69c-5.64,0-11.29-.22-16.92-.59A245.88,245.88,0,0,0,506.61,334.2Zm50,8.33a18.92,18.92,0,0,0-2.66-4.85,47.25,47.25,0,0,0-7.7-7.91A133.37,133.37,0,0,0,528,317.36c-5.25-3-10.61-5.87-16-8.57a235.09,235.09,0,0,0,2.77-29.07c2.22,0,4.44-.1,6.66-.22a99.28,99.28,0,0,0,19.34-2.66,37,37,0,0,0,9.12-3.52c2.8-1.6,5.44-4,6.28-7.24a8.44,8.44,0,0,0,.28-2,164.61,164.61,0,0,1,.55,79.66A10.26,10.26,0,0,0,556.59,342.53Zm-2.35-85.86a36.83,36.83,0,0,0-6.18-7.56,100.36,100.36,0,0,0-15.51-11.87,242.6,242.6,0,0,0-23.27-13c-.38-1.49-.74-3-1.14-4.48a146.33,146.33,0,0,0-15.35-36.52,14.18,14.18,0,0,0,2.76-1.43,7,7,0,0,0,3.07-3.92,6.13,6.13,0,0,0,0-3A166.82,166.82,0,0,1,554.44,257C554.38,256.91,554.31,256.79,554.24,256.67ZM238.88,352c-1.42-2.44-2.09-5-1.53-6.92s2.3-3.83,4.75-5.23a33.48,33.48,0,0,1,8.25-3.2A95.32,95.32,0,0,1,268.9,334q3.56-.19,7.13-.22s0,0,0,0a203.21,203.21,0,0,0,5.1,48.63,230.32,230.32,0,0,1-21.78-12.23,96,96,0,0,1-14.86-11.4A34.54,34.54,0,0,1,238.88,352Zm42.66-18.2c8.51.06,17,.58,25.56,1.39q14.7,1.39,29.33,3.73a412.94,412.94,0,0,0-5.38,48.81q-.36,7.74-.27,15.42-19.17-6.74-37.67-15c-2.05-.93-4.09-1.87-6.12-2.84A199.16,199.16,0,0,1,281.54,333.77Zm83.45,134a33.42,33.42,0,0,0,7.57-3.91c5.81-4,11-9.4,15.79-15.3A178.53,178.53,0,0,0,403.49,426c12.69,2.23,25.45,4,38.27,5.22q4.9.47,9.82.8c-.5.5-1,1-1.49,1.5-13.37,13.11-28.86,23.66-45.53,29.78a89.79,89.79,0,0,1-25.51,5.47c-2.37.15-4.74.17-7.1.1Q368.47,468.39,365,467.73Zm40.74-2.33c16.94-6.57,32.37-17.64,45.71-31,.74-.74,1.43-1.5,2.16-2.24a243.39,243.39,0,0,0,27,.23,100.25,100.25,0,0,0,19.27-2.68,38.73,38.73,0,0,0,8.59-3.28,166.14,166.14,0,0,1-120.65,44A96.56,96.56,0,0,0,405.73,465.4Zm107.62-55.85A36.69,36.69,0,0,0,507.2,402a99.92,99.92,0,0,0-15.42-11.84c-1.85-1.17-3.73-2.32-5.61-3.45a233.56,233.56,0,0,0,12.19-26.85c6.1.33,12.19.51,18.29.47a132.65,132.65,0,0,0,22-1.78,47.15,47.15,0,0,0,10.6-3.07,19.34,19.34,0,0,0,4.71-2.9,12.25,12.25,0,0,0,.9-.87,164.82,164.82,0,0,1-40.12,68.65,7.55,7.55,0,0,0,.51-1.4C516.11,415.71,515,412.32,513.35,409.55Zm-259.5-20.61a165.76,165.76,0,0,1-10.68-22.24A113.65,113.65,0,0,0,256,376a230.38,230.38,0,0,0,27.08,14.28c.1.35.19.7.29,1.06C288.72,409.71,297.19,427,309,440.9a96.6,96.6,0,0,0,12,11.87,164.61,164.61,0,0,1-43.88-32.32A168.79,168.79,0,0,1,253.85,388.94Z"
          transform="translate(-179.05 -125.97)"/>
    <path class="cls-4"
          d="M439.71,141.12c-89.84-23.73-182.35,30.45-206.22,120.79s29.82,183.15,119.66,206.88S535.51,438.34,559.37,348,529.56,164.85,439.71,141.12Z"
          transform="translate(-179.05 -125.97)"/>
    <rect class="cls-5" x="6.63" y="138.69" width="420.77" height="83.82"/>
    <path class="cls-6"
          d="M543.32,318.05h0a2.09,2.09,0,1,1,4.17,0h0a2.09,2.09,0,1,1-4.17,0Zm3.93,0h0a1.85,1.85,0,1,0-3.69,0h0a1.85,1.85,0,1,0,3.69,0Zm-2.66-1.1h1c.47,0,.81.22.81.67a.64.64,0,0,1-.49.65l.57.8h-.5l-.5-.73H545v.73h-.41Zm.92,1.05c.28,0,.43-.14.43-.35s-.15-.34-.43-.34H545V318Z"
          transform="translate(-179.05 -125.97)"/>
    <path class="cls-1" d="M243.73,315.68h2.34L246,336.31h-2.3Z" transform="translate(-179.05 -125.97)"/>
    <path class="cls-1" d="M256.65,315.68h2.21l13,16.49V315.68h2.27v20.63h-1.82L259,319.43l-.07,16.88h-2.22Z"
          transform="translate(-179.05 -125.97)"/>
    <path class="cls-1" d="M290,317.86h-6.91V315.7h16.22v2.14h-6.92v18.48H290Z" transform="translate(-179.05 -125.97)"/>
    <path class="cls-1" d="M308.24,315.61h14.92v2.13H310.59v7l11.26,0v2.11H310.58v7.2l12.71.05v2.08H308.24Z"
          transform="translate(-179.05 -125.97)"/>
    <path class="cls-1"
          d="M332.57,315.68h8.25c3.12,0,5.2.68,6.58,2.11a6.54,6.54,0,0,1,1.51,3.83h0c0,3.45-2,5.59-5.57,6.26l6.33,8.43h-2.88l-6-8h-5.86l0,8h-2.33Zm8.1,10.56c4.43,0,5.87-2,5.92-4.53h0c-.3-2-1.22-3.91-5.82-3.91l-5.88.05v8.34Z"
          transform="translate(-179.05 -125.97)"/>
    <path class="cls-1" d="M358.47,315.68h2.22l13,16.56V315.68H376v20.63h-1.87L360.8,319.43l0,16.88H358.5Z"
          transform="translate(-179.05 -125.97)"/>
    <path class="cls-1"
          d="M394,315.54h2.18l9.4,20.77h-2.5l-2.38-5.42-11.26,0L387,336.31h-2.4Zm5.74,13.2-4.67-10.48-4.72,10.48Z"
          transform="translate(-179.05 -125.97)"/>
    <path class="cls-1" d="M417,317.83h-6.91v-2.16h16.22v2.16h-6.93l0,18.47h-2.34Z"
          transform="translate(-179.05 -125.97)"/>
    <path class="cls-1" d="M435.5,315.68h2.32v20.63H435.5Z" transform="translate(-179.05 -125.97)"/>
    <path class="cls-1"
          d="M447.54,326.05V326a10.47,10.47,0,0,1,10.36-10.67,10.3,10.3,0,0,1,10.67,10.59h0a10.52,10.52,0,1,1-21,.13Zm18.64,0V326a8.14,8.14,0,0,0-8.11-8.49c-5.11,0-8.09,4-8.11,8.47V326a8.3,8.3,0,0,0,5.9,8.25A8.16,8.16,0,0,0,466.18,326Z"
          transform="translate(-179.05 -125.97)"/>
    <path class="cls-1" d="M478.09,315.68h2.19l13,16.53V315.68h2.29v20.63h-1.88l-13.31-16.89,0,16.89H478.1Z"
          transform="translate(-179.05 -125.97)"/>
    <path class="cls-1"
          d="M513.63,315.54h2.17l9.41,20.77H522.7l-2.45-5.45H509.06l-2.47,5.44h-2.37Zm5.73,13.17-4.7-10.46L510,328.75Z"
          transform="translate(-179.05 -125.97)"/>
    <path class="cls-1" d="M533.86,315.68h2.33v18.49h11.64l0,2.13H533.86Z" transform="translate(-179.05 -125.97)"/>
    <path class="cls-7" d="M208.73,282.47h-10v-6.38H226v6.38H216v25.07h-7.26Z" transform="translate(-179.05 -125.97)"/>
    <path class="cls-7"
          d="M228.72,291.91v-.09c0-8.95,7.4-16.27,17.59-16.27s17.49,7.23,17.49,16.18v.09c0,8.94-7.4,16.26-17.59,16.26S228.72,300.85,228.72,291.91Zm27.49,0v-.09a9.78,9.78,0,0,0-10-9.89,9.62,9.62,0,0,0-9.9,9.8v.09a9.78,9.78,0,0,0,10,9.88A9.63,9.63,0,0,0,256.21,291.91Z"
          transform="translate(-179.05 -125.97)"/>
    <path class="cls-7"
          d="M279.45,275.86h6.7l14.14,31.68H292.7l-3-7.05H275.73l-3,7.05h-7.4Zm7.64,18.52-4.39-10.2-4.38,10.2Z"
          transform="translate(-179.05 -125.97)"/>
    <path class="cls-7"
          d="M302.65,303l4.29-4.9a15.52,15.52,0,0,0,9.85,3.82c3,0,4.77-1.12,4.77-3v-.09c0-1.76-1.14-2.65-6.65-4-6.65-1.62-10.94-3.37-10.94-9.62v-.09c0-5.71,4.81-9.48,11.55-9.48a19.72,19.72,0,0,1,12.26,4L324,284.85c-2.93-1.93-5.8-3.1-8.58-3.1s-4.25,1.21-4.25,2.74v.09c0,2.07,1.42,2.74,7.12,4.14,6.7,1.66,10.47,3.95,10.47,9.43v.09c0,6.25-5,9.75-12.12,9.75A21.6,21.6,0,0,1,302.65,303Z"
          transform="translate(-179.05 -125.97)"/>
    <path class="cls-7" d="M342.07,282.47H332v-6.38h27.35v6.38h-10v25.07h-7.26Z"
          transform="translate(-179.05 -125.97)"/>
    <path class="cls-7"
          d="M364.93,276.09h7.83l8.68,13.3,8.67-13.3h7.83v31.45h-7.22V287l-9.28,13.43h-.19l-9.2-13.3v20.4h-7.12Z"
          transform="translate(-179.05 -125.97)"/>
    <path class="cls-7"
          d="M417.17,275.86h6.7L438,307.54h-7.59l-3-7.05H413.45l-3,7.05H403Zm7.64,18.52-4.38-10.2L416,294.38Z"
          transform="translate(-179.05 -125.97)"/>
    <path class="cls-7"
          d="M440.37,303l4.29-4.9a15.52,15.52,0,0,0,9.86,3.82c3,0,4.76-1.12,4.76-3v-.09c0-1.76-1.13-2.65-6.65-4-6.65-1.62-10.94-3.37-10.94-9.62v-.09c0-5.71,4.81-9.48,11.55-9.48a19.72,19.72,0,0,1,12.26,4l-3.77,5.21c-2.92-1.93-5.8-3.1-8.58-3.1s-4.24,1.21-4.24,2.74v.09c0,2.07,1.41,2.74,7.12,4.14,6.69,1.66,10.46,3.95,10.46,9.43v.09c0,6.25-5,9.75-12.11,9.75A21.62,21.62,0,0,1,440.37,303Z"
          transform="translate(-179.05 -125.97)"/>
    <path class="cls-7" d="M479.79,282.47h-10v-6.38h27.34v6.38h-10v25.07h-7.26Z"
          transform="translate(-179.05 -125.97)"/>
    <path class="cls-7" d="M502.66,276.09h24.89v6.15H509.87v6.39h15.56v6.15H509.87v6.61h17.92v6.15H502.66Z"
          transform="translate(-179.05 -125.97)"/>
    <path class="cls-7"
          d="M534.25,276.09h15.08c4.2,0,7.45,1.12,9.62,3.19a9.61,9.61,0,0,1,2.83,7.19v.09c0,5.08-2.87,8.27-7.07,9.75l8.06,11.23h-8.48l-7.08-10.06h-5.7v10.06h-7.26Zm14.61,15.28c3.54,0,5.57-1.8,5.57-4.45v-.09c0-3-2.17-4.5-5.71-4.5h-7.21v9Z"
          transform="translate(-179.05 -125.97)"/>
    <path class="cls-7"
          d="M566.07,303l4.29-4.9a15.55,15.55,0,0,0,9.86,3.82c3,0,4.76-1.12,4.76-3v-.09c0-1.76-1.13-2.65-6.65-4-6.65-1.62-10.94-3.37-10.94-9.62v-.09c0-5.71,4.81-9.48,11.55-9.48a19.7,19.7,0,0,1,12.26,4l-3.77,5.21c-2.92-1.93-5.8-3.1-8.58-3.1s-4.24,1.21-4.24,2.74v.09c0,2.07,1.41,2.74,7.11,4.14,6.7,1.66,10.47,3.95,10.47,9.43v.09c0,6.25-5,9.75-12.11,9.75A21.62,21.62,0,0,1,566.07,303Z"
          transform="translate(-179.05 -125.97)"/>
</svg>
